<svg height="512pt" viewBox="-56 0 512 512.0014" width="512pt" xmlns="http://www.w3.org/2000/svg"><path d="m324.90625 409.640625c1.730469 1.1875 3.703125 1.757813 5.65625 1.757813 3.179688 0 6.3125-1.515626 8.25-4.335938 9.339844-13.59375 16.574219-28.4375 21.496094-44.121094 1.652344-5.273437-1.277344-10.882812-6.546875-12.539062-5.269531-1.648438-10.882813 1.28125-12.535157 6.550781-4.328124 13.785156-10.683593 26.832031-18.898437 38.78125-3.128906 4.550781-1.972656 10.777344 2.578125 13.90625zm0 0"/><path d="m304.847656 416.703125-.066406.0625c-3.9375 3.871094-3.992188 10.203125-.117188 14.140625 1.957032 1.992188 4.542969 2.992188 7.132813 2.992188 2.527344 0 5.0625-.957032 7.007813-2.871094l.292968-.292969c3.863282-3.925781 3.796875-10.210937-.113281-14.089844-3.910156-3.875-10.246094-3.835937-14.136719.058594zm0 0"/><path d="m352.945312 168.9375c-41.925781-71.613281-101.394531-133.984375-125.023437-157.484375l-.144531-.144531c-15.398438-15.136719-40.375-15.070313-55.6875.152344-3.914063 3.894531-3.933594 10.226562-.039063 14.144531 3.894531 3.914062 10.226563 3.933593 14.144531.039062 7.578126-7.53125 19.9375-7.566406 27.585938-.042969l.085938.078126c23.09375 22.972656 81.101562 83.816406 121.820312 153.363281 29.042969 49.609375 43.953125 94.238281 44.328125 132.675781-.074219.484375-.109375.980469-.109375 1.480469-.003906 47.710937-18.679688 92.566406-52.597656 126.296875-33.972656 33.785156-79.179688 52.390625-127.296875 52.390625-.492188 0-.980469.035156-1.464844.105469-47.75-.363282-92.363281-18.59375-125.761719-51.425782-33.960937-33.386718-52.667968-78.617187-52.667968-127.359375 0-.5-.039063-.992187-.105469-1.472656.378906-37.71875 15.4375-82.230469 44.773437-132.328125 18.59375-31.761719 43.480469-66.351562 71.976563-100.027344 3.566406-4.214844 3.039062-10.527344-1.175781-14.09375-4.214844-3.566406-10.527344-3.042968-14.09375 1.175782-29.226563 34.539062-54.804688 70.101562-73.96875 102.839843-31.535157 53.855469-47.523438 102.273438-47.523438 143.90625 0 .53125.0429688 1.054688.121094 1.5625.398437 53.558594 21.1875 103.242188 58.640625 140.0625 37.503906 36.863281 87.664062 57.167969 141.25 57.167969.527343 0 1.042969-.039062 1.546875-.117188 52.859375-.394531 102.476562-21.03125 139.855468-58.203124 37.347657-37.144532 58.082032-86.417969 58.488282-138.910157.078125-.507812.121094-1.035156.121094-1.566406 0-42.375-15.839844-90.910156-47.078126-144.265625zm0 0"/><path d="m148.175781 61.117188c2.722657 0 5.4375-1.105469 7.410157-3.28125l.417968-.464844c3.671875-4.125 3.304688-10.445313-.824218-14.117188-4.128907-3.671875-10.445313-3.304687-14.117188.824219l-.289062.320313c-3.710938 4.089843-3.402344 10.414062.6875 14.125 1.914062 1.738281 4.316406 2.59375 6.714843 2.59375zm0 0"/><path d="m110.007812 289.988281v32c0 11.398438 9.269532 20.667969 20.667969 20.667969h32.667969v32.667969c0 11.398437 9.269531 20.667969 20.667969 20.667969h32c11.398437 0 20.667969-9.269532 20.667969-20.667969v-32.667969h32.667968c11.398438 0 20.667969-9.269531 20.667969-20.667969v-32c0-11.398437-9.269531-20.667969-20.667969-20.667969h-32.667968v-32.667968c0-11.398438-9.269532-20.667969-20.667969-20.667969h-32c-11.398438 0-20.667969 9.269531-20.667969 20.667969v32.667968h-32.667969c-11.398437 0-20.667969 9.273438-20.667969 20.667969zm63.335938-.667969c5.523438 0 10-4.476562 10-10v-42.667968c0-.34375.324219-.667969.667969-.667969h32c.34375 0 .667969.324219.667969.667969v42.667968c0 5.523438 4.480468 10 10 10h42.667968c.34375 0 .667969.324219.667969.667969v32c0 .34375-.324219.667969-.667969.667969h-42.667968c-5.519532 0-10 4.480469-10 10v42.667969c0 .34375-.324219.667969-.667969.667969h-32c-.34375 0-.667969-.324219-.667969-.667969v-42.667969c0-5.519531-4.476562-10-10-10h-42.667969c-.34375 0-.667969-.324219-.667969-.667969v-32c0-.34375.324219-.667969.667969-.667969zm0 0"/></svg>